<?xml version="1.0" encoding="utf-8"?>
<!-- Generator: Adobe Illustrator 17.1.0, SVG Export Plug-In . SVG Version: 6.00 Build 0)  -->
<!DOCTYPE svg PUBLIC "-//W3C//DTD SVG 1.1//EN" "http://www.w3.org/Graphics/SVG/1.1/DTD/svg11.dtd">
<svg version="1.1" id="Lager_1" xmlns="http://www.w3.org/2000/svg" xmlns:xlink="http://www.w3.org/1999/xlink" x="0px" y="0px"
	 viewBox="0 0 283.5 68" enable-background="new 0 0 283.5 68" xml:space="preserve">
<path fill="#FFFFFF" d="M72,61h11.2v1.2H72V61z"/>
<path fill="#FFFFFF" d="M208.9,61h11.2v1.2h-11.2V61z"/>
<path fill="#FFFFFF" d="M93.9,55.3h6.1v1.1h-4.8v4.1h4v1.1h-4v5h4.8v1.1h-6.1V55.3z"/>
<path fill="#FFFFFF" d="M104.8,55.3h1.6l3.7,10.5l0,0L110,63v-7.6h1.2v12.4h-1.6L106,57.3l0,0l0.1,2.8v7.6h-1.2V55.3z"/>
<path fill="#FFFFFF" d="M118.3,56.5h-2.7v-1.1h6.6v1.1h-2.6v11.3h-1.2V56.5z"/>
<path fill="#FFFFFF" d="M127.4,55.3h6.1v1.1h-4.8v4.1h4v1.1h-4v5h4.8v1.1h-6.1V55.3z"/>
<path fill="#FFFFFF" d="M138.7,55.3h3.4c1.2,0,2.8,1.1,2.8,3.3c0,1.5-0.6,3-2.1,3.5l2.6,5.3l-1.1,0.5l-2.8-5.8H140v5.5h-1.2V55.3z
	 M140,61.1h1.8c1.1,0,1.8-0.8,1.8-2.5c0-1.6-0.8-2.2-2.1-2.2H140V61.1z"/>
<path fill="#FFFFFF" d="M151.1,67.8h-1.2V55.3h2.7c2.2,0,3.4,1.2,3.4,3.3c0,2.3-1.3,3.6-3,3.6h-1.9V67.8z M151.1,61.1l1.8,0
	c1.2,0,1.8-0.9,1.8-2.5c0-1.5-0.8-2.2-2.1-2.2h-1.4V61.1z"/>
<path fill="#FFFFFF" d="M161.1,55.3h3.4c1.2,0,2.8,1.1,2.8,3.3c0,1.5-0.6,3-2.1,3.5l2.6,5.3l-1.1,0.5l-2.8-5.8h-1.4v5.5h-1.2V55.3z
	 M162.3,61.1h1.8c1.1,0,1.8-0.8,1.8-2.5c0-1.6-0.8-2.2-2.1-2.2h-1.5V61.1z"/>
<path fill="#FFFFFF" d="M174.2,56.5h-1.7v-1.1h4.6v1.1h-1.7v10.2h1.7v1.1h-4.6v-1.1h1.7V56.5z"/>
<path fill="#FFFFFF" d="M187.3,58.2c-0.2-0.9-0.7-1.8-1.7-1.8c-1.2,0-1.6,1-1.6,2c0,1,0.2,1.3,2.2,2.5c1.5,0.9,2.6,1.7,2.6,3.6
	c0,2-1,3.5-3.1,3.5c-2.2,0-3-1.5-3.2-3.4l1.2-0.2c0.2,1.4,0.5,2.4,2,2.4c1.1,0,1.8-0.7,1.8-2.2c0-1.6-1.1-2.2-2.3-2.9
	c-1.4-0.8-2.4-1.4-2.4-3.3c0-1.7,1.1-3.2,2.9-3.2c1.8,0,2.6,1.2,2.9,2.8L187.3,58.2z"/>
<path fill="#FFFFFF" d="M194,55.3h6.1v1.1h-4.8v4.1h4v1.1h-4v5h4.8v1.1H194V55.3z"/>
<path fill="#FFFFFF" d="M5.5,27.3l0-21.5l27.6,0c0-5.2-4.3-5.5-7.3-5.5H7.7c-3,0-5,0.5-6.1,1.6C0.5,3,0,5,0,8v17.1
	c0,3,0.5,5,1.6,6.1c1.1,1.1,3.1,1.6,6.1,1.6l0,0l0,0h18.1c3,0,7.3-0.3,7.3-5.5L5.5,27.3z"/>
<path fill="#FFFFFF" d="M90.4,27.3l0-27.1c-1.7,0-2.8,0.3-3.9,1.4C85.4,2.8,84.9,5,84.9,8v17.1c0,3,0.5,5,1.6,6.1
	c1.1,1.1,3.1,1.6,6.1,1.6l0,0l0,0h15.1c3,0,7.3-0.2,7.3-5.4L90.4,27.3z"/>
<path fill="#FFFFFF" d="M126.3,27.3l0-27.1c-1.7,0-2.8,0.3-3.9,1.4c-1.1,1.1-1.6,3.3-1.6,6.3v17.1c0,3,0.5,5,1.6,6.1
	c1.1,1.1,3.1,1.6,6.1,1.6l0,0l0,0h15.1c3,0,7.3-0.2,7.3-5.4L126.3,27.3z"/>
<path fill="#FFFFFF" d="M162.9,32.8l0-32.6c-1.7,0-2.8,0.3-3.9,1.4c-1.1,1.1-1.6,3.3-1.6,6.3v24.8L162.9,32.8z"/>
<path fill="#FFFFFF" d="M198.4,13.2l-20.3,0l0-7.4l27.4,0c0-5.2-4.3-5.5-7.3-5.5h-17.9c-3,0-5,0.5-6.1,1.6C173.1,3,172.6,5,172.6,8
	c0,0,0,5.1,0,5.1c0.1,5.1,4.4,5.4,7.3,5.4l20.3,0v8.9l-27.6,0c0,5.2,4.3,5.4,7.3,5.4H198c3,0,5-0.5,6.1-1.6c1.1-1.1,1.6-3.1,1.6-6.1
	l0-6.5C205.6,13.5,201.3,13.2,198.4,13.2z"/>
<path fill="#FFFFFF" d="M73.8,32.8l5.9,0c0,0-14.9-27.4-16.1-29.6C62.4,1,60.5,0,59,0l0,0h0h0l0,0c-1.6,0-3.4,1-4.6,3.2
	c-1.2,2.2-16.1,29.6-16.1,29.6l5.9,0l4-7.3h21.7L73.8,32.8z M50.8,20.5L59,5.3l8.2,15.1H50.8z"/>
<path fill="#FFFFFF" d="M277.6,32.8l5.9,0c0,0-14.9-27.4-16.1-29.6C266.2,1,264.3,0,262.8,0l0,0h0h0l0,0c-1.6,0-3.4,1-4.6,3.2
	c-1.2,2.2-16.1,29.6-16.1,29.6l5.9,0l4-7.3h21.7L277.6,32.8z M254.6,20.5l8.2-15.1l8.2,15.1H254.6z"/>
<path fill="#FFFFFF" d="M244.7,5.7c0-5.2-4.3-5.5-7.3-5.5H231h-5.5H219c-3,0-7.3,0.3-7.3,5.5h13.7l0,27h5.5l0-27H244.7z"/>
</svg>
